<svg xmlns="http://www.w3.org/2000/svg" xmlns:xlink="http://www.w3.org/1999/xlink" preserveAspectRatio="xMidYMid" width="13" height="12" viewBox="0 0 13 12">
  <defs>
    <style>

      .cls-2 {
        fill: #b2b9c3;
      }
    </style>
  </defs>
  <path d="M10.422,0.009 C10.422,0.009 2.578,0.009 2.578,0.009 C1.333,0.009 0.009,1.293 0.009,2.578 C0.009,2.578 0.009,6.284 0.009,6.284 C0.009,8.853 2.000,9.000 2.000,9.000 C2.000,9.000 4.000,9.000 4.000,9.000 C4.000,9.000 4.000,12.000 4.000,12.000 C4.000,12.000 7.000,9.000 7.000,9.000 C7.000,9.000 9.756,9.000 11.000,9.000 C12.244,9.000 12.991,7.489 12.991,6.284 C12.991,6.284 12.991,2.578 12.991,2.578 C12.991,1.333 11.707,0.009 10.422,0.009 Z" id="path-1" class="cls-2" fill-rule="evenodd"/>
</svg>
