<svg width="11" height="23" viewBox="0 0 11 23" fill="none" xmlns="http://www.w3.org/2000/svg">
<g opacity="0.4">
<path d="M10.5858 0.175476L7.94737 0.170898C4.98322 0.170898 3.06766 2.29599 3.06766 5.58513V8.08145H0.414863C0.18563 8.08145 0 8.2824 0 8.53027V12.1472C0 12.395 0.185842 12.5957 0.414863 12.5957H3.06766V21.7223C3.06766 21.9702 3.25329 22.1709 3.48252 22.1709H6.94366C7.17289 22.1709 7.35852 21.9699 7.35852 21.7223V12.5957H10.4603C10.6895 12.5957 10.8751 12.395 10.8751 12.1472L10.8764 8.53027C10.8764 8.41126 10.8326 8.29728 10.7549 8.21305C10.6772 8.12883 10.5714 8.08145 10.4613 8.08145H7.35852V5.96529C7.35852 4.94817 7.58267 4.43184 8.808 4.43184L10.5853 4.43115C10.8144 4.43115 11 4.2302 11 3.98256V0.624068C11 0.376656 10.8146 0.175934 10.5858 0.175476Z" fill="#E0E0E0"/>
</g>
</svg>
