<svg width="21" height="21" viewBox="0 0 21 21" fill="none" xmlns="http://www.w3.org/2000/svg">
<g opacity="0.4">
<path d="M19.9804 6.03447C19.9336 4.97477 19.7617 4.24624 19.5156 3.61496C19.2616 2.94486 18.8709 2.34493 18.359 1.8462C17.8589 1.33972 17.2533 0.946154 16.5891 0.696867C15.9524 0.451384 15.2256 0.280019 14.163 0.233296C13.0923 0.182617 12.7525 0.170898 10.0371 0.170898C7.32172 0.170898 6.98185 0.182617 5.9152 0.229339C4.85253 0.276062 4.12195 0.44758 3.48904 0.69291C2.81692 0.946154 2.2153 1.33576 1.71517 1.8462C1.20726 2.34493 0.812742 2.94882 0.562602 3.61115C0.31643 4.24624 0.144583 4.97082 0.0977294 6.03051C0.0469078 7.09813 0.0351562 7.43705 0.0351562 10.1448C0.0351562 12.8526 0.0469078 13.1915 0.0937614 14.2552C0.140615 15.3149 0.312615 16.0434 0.558787 16.6747C0.812742 17.3448 1.20726 17.9447 1.71517 18.4434C2.2153 18.9499 2.82088 19.3435 3.48507 19.5928C4.12195 19.8382 4.84856 20.0096 5.91139 20.0563C6.97788 20.1032 7.31791 20.1148 10.0333 20.1148C12.7486 20.1148 13.0885 20.1032 14.1552 20.0563C15.2178 20.0096 15.9484 19.8382 16.5813 19.5928C17.9254 19.0746 18.9881 18.0149 19.5078 16.6747C19.7538 16.0396 19.9258 15.3149 19.9726 14.2552C20.0195 13.1915 20.0312 12.8526 20.0312 10.1448C20.0312 7.43705 20.0273 7.09813 19.9804 6.03447ZM18.1794 14.1772C18.1364 15.1513 17.9723 15.6772 17.8355 16.0279C17.4995 16.8967 16.808 17.5863 15.9367 17.9214C15.585 18.0578 15.0538 18.2214 14.0808 18.2641C13.026 18.311 12.7096 18.3226 10.0411 18.3226C7.37255 18.3226 7.0522 18.311 6.00113 18.2641C5.02437 18.2214 4.49693 18.0578 4.1453 17.9214C3.71171 17.7616 3.31704 17.5084 2.9967 17.1772C2.6646 16.8538 2.41065 16.4642 2.2504 16.0318C2.11365 15.6812 1.94959 15.1513 1.9067 14.1812C1.8597 13.1293 1.8481 12.8136 1.8481 10.1526C1.8481 7.49154 1.8597 7.17209 1.9067 6.12411C1.94959 5.1501 2.11365 4.62413 2.2504 4.27348C2.41065 3.84096 2.6646 3.44755 3.00067 3.12795C3.32483 2.79678 3.71553 2.54354 4.14927 2.38389C4.5009 2.24753 5.03231 2.08393 6.00509 2.04101C7.05999 1.99429 7.37652 1.98257 10.0449 1.98257C12.7174 1.98257 13.0337 1.99429 14.0848 2.04101C15.0616 2.08393 15.589 2.24753 15.9406 2.38389C16.3742 2.54354 16.7689 2.79678 17.0892 3.12795C17.4213 3.45135 17.6753 3.84096 17.8355 4.27348C17.9723 4.62413 18.1364 5.1539 18.1794 6.12411C18.2262 7.17605 18.238 7.49154 18.238 10.1526C18.238 12.8136 18.2262 13.1253 18.1794 14.1772Z" fill="#E0E0E0"/>
<path d="M10.0371 5.02149C7.20069 5.02149 4.89937 7.31622 4.89937 10.1448C4.89937 12.9734 7.20069 15.2682 10.0371 15.2682C12.8736 15.2682 15.1748 12.9734 15.1748 10.1448C15.1748 7.31622 12.8736 5.02149 10.0371 5.02149ZM10.0371 13.4682C8.19698 13.4682 6.70438 11.9799 6.70438 10.1448C6.70438 8.30972 8.19698 6.82145 10.0371 6.82145C11.8774 6.82145 13.3698 8.30972 13.3698 10.1448C13.3698 11.9799 11.8774 13.4682 10.0371 13.4682Z" fill="#E0E0E0"/>
<path d="M16.5776 4.81893C16.5776 5.47944 16.0405 6.015 15.378 6.015C14.7156 6.015 14.1785 5.47944 14.1785 4.81893C14.1785 4.15828 14.7156 3.62287 15.378 3.62287C16.0405 3.62287 16.5776 4.15828 16.5776 4.81893Z" fill="#E0E0E0"/>
</g>
</svg>
