<svg width="20" height="23" viewBox="0 0 20 23" fill="none" xmlns="http://www.w3.org/2000/svg">
<g opacity="0.4">
<path d="M19.995 22.0239V22.023H20V14.0223C20 10.1083 19.2275 7.09326 15.0325 7.09326C13.0159 7.09326 11.6625 8.30036 11.11 9.44475H11.0517V7.45866H7.07422V22.023H11.2159V14.8113C11.2159 12.9124 11.5459 11.0763 13.7017 11.0763C15.8258 11.0763 15.8575 13.2433 15.8575 14.9331V22.0239H19.995Z" fill="#E0E0E0"/>
<path d="M0.330078 7.45972H4.47668V22.024H0.330078V7.45972Z" fill="#E0E0E0"/>
<path d="M2.40167 0.208984C1.07584 0.208984 0 1.38245 0 2.82861C0 4.27477 1.07584 5.47278 2.40167 5.47278C3.72751 5.47278 4.80334 4.27477 4.80334 2.82861C4.80251 1.38245 3.72668 0.208984 2.40167 0.208984V0.208984Z" fill="#E0E0E0"/>
</g>
</svg>
