<svg width="30" height="30" viewBox="0 0 30 30" fill="none" xmlns="http://www.w3.org/2000/svg">
<path d="M29.0414 27.3252L21.9013 19.8992C23.7372 17.7169 24.743 14.971 24.743 12.1125C24.743 5.43377 19.3092 0 12.6305 0C5.9518 0 0.518036 5.43377 0.518036 12.1125C0.518036 18.7912 5.9518 24.225 12.6305 24.225C15.1378 24.225 17.5271 23.4687 19.5699 22.0331L26.7642 29.5155C27.0649 29.8278 27.4694 30 27.9028 30C28.313 30 28.7022 29.8436 28.9977 29.5592C29.6254 28.9552 29.6454 27.9535 29.0414 27.3252ZM12.6305 3.15978C17.5672 3.15978 21.5832 7.17586 21.5832 12.1125C21.5832 17.0491 17.5672 21.0652 12.6305 21.0652C7.6939 21.0652 3.67782 17.0491 3.67782 12.1125C3.67782 7.17586 7.6939 3.15978 12.6305 3.15978Z" fill="white"/>
</svg>
