<svg width="22" height="19" viewBox="0 0 22 19" fill="none" xmlns="http://www.w3.org/2000/svg">
<g opacity="0.4">
<path d="M21.5 2.32369C20.7271 2.68139 19.8978 2.92397 19.0264 3.03228C19.9161 2.47582 20.5972 1.59321 20.92 0.54474C20.0854 1.06005 19.1642 1.43423 18.1826 1.63708C17.3966 0.761307 16.2785 0.21582 15.0384 0.21582C12.6593 0.21582 10.7303 2.23051 10.7303 4.71393C10.7303 5.06614 10.7683 5.41015 10.8418 5.7391C7.26201 5.55131 4.08768 3.76003 1.96314 1.03812C1.59176 1.70148 1.38049 2.47442 1.38049 3.29952C1.38049 4.86058 2.14161 6.23797 3.2964 7.04381C2.5904 7.01916 1.92639 6.81632 1.34508 6.47915V6.53535C1.34508 8.7145 2.83056 10.5332 4.80024 10.9471C4.43936 11.0485 4.05882 11.1047 3.66514 11.1047C3.38696 11.1047 3.11794 11.076 2.85417 11.0211C3.40267 12.8097 4.99315 14.1103 6.87756 14.146C5.40388 15.3521 3.54573 16.0688 1.52749 16.0688C1.17976 16.0688 0.837236 16.0469 0.5 16.0072C2.40671 17.2859 4.67036 18.0315 7.10327 18.0315C15.028 18.0315 19.3597 11.176 19.3597 5.23064L19.3453 4.64817C20.1917 4.01767 20.9239 3.22551 21.5 2.32369Z" fill="#F2F2F2"/>
</g>
</svg>
